<svg viewBox="0 0 1400 1150" xmlns="http://www.w3.org/2000/svg">
  <!-- Title -->
  <text x="700" y="30" font-size="18" font-weight="bold" text-anchor="middle" font-family="Arial">
    Architecture of DenseNet121 + CBAM model for glaucoma classification
  </text>
  
  <!-- Main Architecture Flow -->
  
  <!-- Input Image -->
  <rect x="30" y="80" width="80" height="80" fill="#8B4513" stroke="#000" stroke-width="2"/>
  <text x="70" y="130" font-size="11" font-weight="bold" text-anchor="middle" fill="#fff" font-family="Arial">Input</text>
  <text x="70" y="145" font-size="9" text-anchor="middle" fill="#fff" font-family="Arial">224×224×3</text>
  
  <!-- Arrow -->
  <line x1="110" y1="120" x2="150" y2="120" stroke="#000" stroke-width="2" marker-end="url(#arrowhead)"/>
  
  <!-- Initial Conv Block -->
  <rect x="150" y="85" width="90" height="70" fill="#B8D4E8" stroke="#000" stroke-width="2" rx="5"/>
  <text x="195" y="110" font-size="9" text-anchor="middle" font-family="Arial">Conv2D 7×7</text>
  <text x="195" y="122" font-size="8" text-anchor="middle" font-family="Arial">64 filters</text>
  <text x="195" y="134" font-size="8" text-anchor="middle" font-family="Arial">stride=2</text>
  <text x="195" y="146" font-size="8" text-anchor="middle" font-family="Arial">+ BN + ReLU</text>
  
  <line x1="240" y1="120" x2="280" y2="120" stroke="#000" stroke-width="2" marker-end="url(#arrowhead)"/>
  
  <!-- MaxPool -->
  <rect x="280" y="90" width="70" height="60" fill="#D4E8B8" stroke="#000" stroke-width="2" rx="5"/>
  <text x="315" y="115" font-size="9" text-anchor="middle" font-family="Arial">MaxPool</text>
  <text x="315" y="127" font-size="8" text-anchor="middle" font-family="Arial">3×3</text>
  <text x="315" y="139" font-size="8" text-anchor="middle" font-family="Arial">stride=2</text>
  
  <line x1="350" y1="120" x2="390" y2="120" stroke="#000" stroke-width="2" marker-end="url(#arrowhead)"/>
  
  <!-- Dense Block 1 -->
  <rect x="390" y="60" width="110" height="120" fill="#E6F3FF" stroke="#0066CC" stroke-width="2" rx="8" stroke-dasharray="5,5"/>
  <text x="445" y="80" font-size="11" font-weight="bold" text-anchor="middle" font-family="Arial">Dense Block 1</text>
  <text x="445" y="100" font-size="9" text-anchor="middle" font-family="Arial">6 layers</text>
  <text x="445" y="115" font-size="8" text-anchor="middle" font-family="Arial">Growth rate: 32</text>
  <text x="445" y="130" font-size="8" text-anchor="middle" font-family="Arial">Output:</text>
  <text x="445" y="145" font-size="8" text-anchor="middle" font-family="Arial">56×56×256</text>
  <text x="445" y="165" font-size="8" font-weight="bold" text-anchor="middle" font-family="Arial">conv2_block(1-6)</text>
  
  <line x1="500" y1="120" x2="540" y2="120" stroke="#000" stroke-width="2" marker-end="url(#arrowhead)"/>
  
  <!-- Transition 1 -->
  <rect x="540" y="75" width="100" height="90" fill="#FFE6CC" stroke="#FF9933" stroke-width="2" rx="5"/>
  <text x="590" y="95" font-size="10" font-weight="bold" text-anchor="middle" font-family="Arial">Transition 1</text>
  <text x="590" y="110" font-size="8" text-anchor="middle" font-family="Arial">BN+Conv 1×1</text>
  <text x="590" y="122" font-size="8" text-anchor="middle" font-family="Arial">AvgPool 2×2</text>
  <text x="590" y="134" font-size="8" text-anchor="middle" font-family="Arial">Output:</text>
  <text x="590" y="146" font-size="8" text-anchor="middle" font-family="Arial">28×28×128</text>
  
  <line x1="640" y1="120" x2="680" y2="120" stroke="#000" stroke-width="2" marker-end="url(#arrowhead)"/>
  
  <!-- Dense Block 2 -->
  <rect x="680" y="60" width="110" height="120" fill="#E6F3FF" stroke="#0066CC" stroke-width="2" rx="8" stroke-dasharray="5,5"/>
  <text x="735" y="80" font-size="11" font-weight="bold" text-anchor="middle" font-family="Arial">Dense Block 2</text>
  <text x="735" y="100" font-size="9" text-anchor="middle" font-family="Arial">12 layers</text>
  <text x="735" y="115" font-size="8" text-anchor="middle" font-family="Arial">Growth rate: 32</text>
  <text x="735" y="130" font-size="8" text-anchor="middle" font-family="Arial">Output:</text>
  <text x="735" y="145" font-size="8" text-anchor="middle" font-family="Arial">28×28×512</text>
  <text x="735" y="165" font-size="8" font-weight="bold" text-anchor="middle" font-family="Arial">conv3_block(1-12)</text>
  
  <line x1="790" y1="120" x2="830" y2="120" stroke="#000" stroke-width="2" marker-end="url(#arrowhead)"/>
  
  <!-- Transition 2 -->
  <rect x="830" y="75" width="100" height="90" fill="#FFE6CC" stroke="#FF9933" stroke-width="2" rx="5"/>
  <text x="880" y="95" font-size="10" font-weight="bold" text-anchor="middle" font-family="Arial">Transition 2</text>
  <text x="880" y="110" font-size="8" text-anchor="middle" font-family="Arial">BN+Conv 1×1</text>
  <text x="880" y="122" font-size="8" text-anchor="middle" font-family="Arial">AvgPool 2×2</text>
  <text x="880" y="134" font-size="8" text-anchor="middle" font-family="Arial">Output:</text>
  <text x="880" y="146" font-size="8" text-anchor="middle" font-family="Arial">14×14×256</text>
  
  <line x1="930" y1="120" x2="970" y2="120" stroke="#000" stroke-width="2" marker-end="url(#arrowhead)"/>
  
  <!-- Dense Block 3 -->
  <rect x="970" y="60" width="110" height="120" fill="#E6F3FF" stroke="#0066CC" stroke-width="2" rx="8" stroke-dasharray="5,5"/>
  <text x="1025" y="80" font-size="11" font-weight="bold" text-anchor="middle" font-family="Arial">Dense Block 3</text>
  <text x="1025" y="100" font-size="9" text-anchor="middle" font-family="Arial">24 layers</text>
  <text x="1025" y="115" font-size="8" text-anchor="middle" font-family="Arial">Growth rate: 32</text>
  <text x="1025" y="130" font-size="8" text-anchor="middle" font-family="Arial">Output:</text>
  <text x="1025" y="145" font-size="8" text-anchor="middle" font-family="Arial">14×14×1024</text>
  <text x="1025" y="165" font-size="8" font-weight="bold" text-anchor="middle" font-family="Arial">conv4_block(1-24)</text>
  
  <line x1="1080" y1="120" x2="1120" y2="120" stroke="#000" stroke-width="2" marker-end="url(#arrowhead)"/>
  
  <!-- Transition 3 -->
  <rect x="1120" y="75" width="100" height="90" fill="#FFE6CC" stroke="#FF9933" stroke-width="2" rx="5"/>
  <text x="1170" y="95" font-size="10" font-weight="bold" text-anchor="middle" font-family="Arial">Transition 3</text>
  <text x="1170" y="110" font-size="8" text-anchor="middle" font-family="Arial">BN+Conv 1×1</text>
  <text x="1170" y="122" font-size="8" text-anchor="middle" font-family="Arial">AvgPool 2×2</text>
  <text x="1170" y="134" font-size="8" text-anchor="middle" font-family="Arial">Output:</text>
  <text x="1170" y="146" font-size="8" text-anchor="middle" font-family="Arial">7×7×512</text>
  
  <line x1="1220" y1="120" x2="1260" y2="120" stroke="#000" stroke-width="2" marker-end="url(#arrowhead)"/>
  
  <!-- Dense Block 4 -->
  <rect x="1260" y="60" width="110" height="120" fill="#E6F3FF" stroke="#0066CC" stroke-width="2" rx="8" stroke-dasharray="5,5"/>
  <text x="1315" y="80" font-size="11" font-weight="bold" text-anchor="middle" font-family="Arial">Dense Block 4</text>
  <text x="1315" y="100" font-size="9" text-anchor="middle" font-family="Arial">16 layers</text>
  <text x="1315" y="115" font-size="8" text-anchor="middle" font-family="Arial">Growth rate: 32</text>
  <text x="1315" y="130" font-size="8" text-anchor="middle" font-family="Arial">Output:</text>
  <text x="1315" y="145" font-size="8" text-anchor="middle" font-family="Arial">7×7×1024</text>
  <text x="1315" y="165" font-size="8" font-weight="bold" text-anchor="middle" font-family="Arial">conv5_block(1-16)</text>
  
  <!-- Arrow down from Dense Block 4 -->
  <line x1="1315" y1="180" x2="1315" y2="220" stroke="#000" stroke-width="2" marker-end="url(#arrowhead)"/>
  
  <!-- BN + ReLU -->
  <rect x="1265" y="220" width="100" height="50" fill="#E8DAEF" stroke="#8E44AD" stroke-width="2" rx="5"/>
  <text x="1315" y="240" font-size="9" text-anchor="middle" font-family="Arial">Batch Norm</text>
  <text x="1315" y="253" font-size="9" text-anchor="middle" font-family="Arial">+ ReLU</text>
  
  <!-- Arrow to CBAM -->
  <line x1="1265" y1="245" x2="1200" y2="245" stroke="#000" stroke-width="2" marker-end="url(#arrowhead)"/>
  
  <!-- CBAM Module -->
  <rect x="1050" y="195" width="150" height="140" fill="#E8E8E8" stroke="#000" stroke-width="2" rx="5" stroke-dasharray="5,5"/>
  <text x="1125" y="215" font-size="11" font-weight="bold" text-anchor="middle" font-family="Arial">CBAM Module ⭐</text>
  
  <!-- Channel Attention inside CBAM -->
  <rect x="1065" y="225" width="120" height="45" fill="#F9E79F" stroke="#000" stroke-width="1.5" rx="3"/>
  <text x="1125" y="243" font-size="9" text-anchor="middle" font-family="Arial">Channel Attention</text>
  <text x="1125" y="255" font-size="8" text-anchor="middle" font-family="Arial">AvgPool + MaxPool</text>
  <text x="1125" y="265" font-size="8" text-anchor="middle" font-family="Arial">MLP (ratio=8)</text>
  
  <!-- Spatial Attention inside CBAM -->
  <rect x="1065" y="280" width="120" height="45" fill="#A9DFBF" stroke="#000" stroke-width="1.5" rx="3"/>
  <text x="1125" y="298" font-size="9" text-anchor="middle" font-family="Arial">Spatial Attention</text>
  <text x="1125" y="310" font-size="8" text-anchor="middle" font-family="Arial">Conv 7×7</text>
  <text x="1125" y="320" font-size="8" text-anchor="middle" font-family="Arial">Sigmoid</text>
  
  <!-- Arrow from CBAM -->
  <line x1="1050" y1="265" x2="990" y2="265" stroke="#000" stroke-width="2" marker-end="url(#arrowhead)"/>
  
  <!-- Global Average Pooling -->
  <rect x="890" y="240" width="100" height="50" fill="#D4E8B8" stroke="#82B366" stroke-width="2" rx="5"/>
  <text x="940" y="258" font-size="9" text-anchor="middle" font-family="Arial">Global Average</text>
  <text x="940" y="271" font-size="9" text-anchor="middle" font-family="Arial">Pooling</text>
  <text x="940" y="284" font-size="8" text-anchor="middle" font-family="Arial">Output: 1024</text>
  
  <line x1="890" y1="265" x2="820" y2="265" stroke="#000" stroke-width="2" marker-end="url(#arrowhead)"/>
  
  <!-- Batch Normalization -->
  <rect x="720" y="245" width="100" height="40" fill="#E8DAEF" stroke="#8E44AD" stroke-width="2" rx="5"/>
  <text x="770" y="263" font-size="9" text-anchor="middle" font-family="Arial">Batch</text>
  <text x="770" y="276" font-size="9" text-anchor="middle" font-family="Arial">Normalization</text>
  
  <line x1="720" y1="265" x2="640" y2="265" stroke="#000" stroke-width="2" marker-end="url(#arrowhead)"/>
  
  <!-- Dense 256 -->
  <rect x="540" y="250" width="100" height="30" fill="#D5E8D4" stroke="#82B366" stroke-width="2" rx="5"/>
  <text x="590" y="268" font-size="9" text-anchor="middle" font-family="Arial">Dense 256 + ReLU</text>
  
  <line x1="540" y1="265" x2="470" y2="265" stroke="#000" stroke-width="2" marker-end="url(#arrowhead)"/>
  
  <!-- Dropout -->
  <rect x="370" y="250" width="100" height="30" fill="#FADBD8" stroke="#E74C3C" stroke-width="2" rx="5"/>
  <text x="420" y="268" font-size="9" text-anchor="middle" font-family="Arial">Dropout (0.5)</text>
  
  <line x1="370" y1="265" x2="300" y2="265" stroke="#000" stroke-width="2" marker-end="url(#arrowhead)"/>
  
  <!-- Output -->
  <rect x="200" y="235" width="100" height="80" fill="#F8B88B" stroke="#D35400" stroke-width="2" rx="5"/>
  <text x="250" y="255" font-size="10" font-weight="bold" text-anchor="middle" font-family="Arial">Dense 1</text>
  <text x="250" y="268" font-size="9" text-anchor="middle" font-family="Arial">Sigmoid</text>
  <line x1="200" y1="280" x2="300" y2="280" stroke="#000" stroke-width="1"/>
  <text x="250" y="293" font-size="8" text-anchor="middle" font-family="Arial">Normal</text>
  <line x1="200" y1="297" x2="300" y2="297" stroke="#000" stroke-width="1"/>
  <text x="250" y="310" font-size="8" text-anchor="middle" font-family="Arial">Glaucoma</text>
  
  <!-- CBAM Detail Section -->
  <text x="700" y="380" font-size="16" font-weight="bold" text-anchor="middle" font-family="Arial">
    CBAM (Convolutional Block Attention Module) Architecture
  </text>
  
  <!-- CBAM Detail Container -->
  <rect x="100" y="410" width="1200" height="260" fill="#F0F8FF" stroke="#0066CC" stroke-width="2" rx="8"/>
  
  <!-- Input Feature -->
  <g transform="translate(120, 470)">
    <polygon points="0,50 20,0 80,0 60,50" fill="#B8D4E8" stroke="#000" stroke-width="2"/>
    <text x="40" y="30" font-size="9" text-anchor="middle" font-family="Arial">Input</text>
    <text x="40" y="42" font-size="8" text-anchor="middle" font-family="Arial">7×7×1024</text>
    <text x="40" y="75" font-size="8" text-anchor="middle" font-family="Arial">Feature Map</text>
  </g>
  
  <!-- Channel Attention Block -->
  <rect x="240" y="430" width="300" height="180" fill="#FFF9E6" stroke="#FF9933" stroke-width="2" rx="8" stroke-dasharray="5,5"/>
  <text x="390" y="450" font-size="11" font-weight="bold" text-anchor="middle" font-family="Arial">Channel Attention Block</text>
  
  <!-- AvgPool path -->
  <rect x="260" y="470" width="80" height="30" fill="#F9E79F" stroke="#000" stroke-width="1.5" rx="3"/>
  <text x="300" y="488" font-size="8" text-anchor="middle" font-family="Arial">Global Avg Pool</text>
  
  <!-- MaxPool path -->
  <rect x="260" y="510" width="80" height="30" fill="#F9E79F" stroke="#000" stroke-width="1.5" rx="3"/>
  <text x="300" y="528" font-size="8" text-anchor="middle" font-family="Arial">Global Max Pool</text>
  
  <!-- MLP paths -->
  <rect x="360" y="470" width="70" height="30" fill="#F9E79F" stroke="#000" stroke-width="1.5" rx="3"/>
  <text x="395" y="488" font-size="8" text-anchor="middle" font-family="Arial">Dense(128)</text>
  
  <rect x="360" y="510" width="70" height="30" fill="#F9E79F" stroke="#000" stroke-width="1.5" rx="3"/>
  <text x="395" y="528" font-size="8" text-anchor="middle" font-family="Arial">Dense(128)</text>
  
  <rect x="450" y="470" width="70" height="30" fill="#F9E79F" stroke="#000" stroke-width="1.5" rx="3"/>
  <text x="485" y="488" font-size="8" text-anchor="middle" font-family="Arial">Dense(1024)</text>
  
  <rect x="450" y="510" width="70" height="30" fill="#F9E79F" stroke="#000" stroke-width="1.5" rx="3"/>
  <text x="485" y="528" font-size="8" text-anchor="middle" font-family="Arial">Dense(1024)</text>
  
  <!-- Add operation -->
  <circle cx="275" cy="565" r="15" fill="white" stroke="#000" stroke-width="2"/>
  <text x="275" y="571" font-size="14" text-anchor="middle" font-family="Arial">+</text>
  
  <!-- Sigmoid -->
  <rect x="310" y="555" width="35" height="20" fill="#F9E79F" stroke="#000" stroke-width="1.5" rx="3"/>
  <text x="327" y="568" font-size="8" text-anchor="middle" font-family="Arial">Sigmoid</text>
  
  <!-- Reshape -->
  <rect x="365" y="555" width="50" height="20" fill="#F9E79F" stroke="#000" stroke-width="1.5" rx="3"/>
  <text x="390" y="568" font-size="7" text-anchor="middle" font-family="Arial">1×1×1024</text>
  
  <!-- Arrows -->
  <line x1="340" y1="485" x2="360" y2="485" stroke="#000" stroke-width="1.5" marker-end="url(#arrowhead)"/>
  <line x1="340" y1="525" x2="360" y2="525" stroke="#000" stroke-width="1.5" marker-end="url(#arrowhead)"/>
  <line x1="430" y1="485" x2="450" y2="485" stroke="#000" stroke-width="1.5" marker-end="url(#arrowhead)"/>
  <line x1="430" y1="525" x2="450" y2="525" stroke="#000" stroke-width="1.5" marker-end="url(#arrowhead)"/>
  <line x1="485" y1="500" x2="485" y2="545" stroke="#000" stroke-width="1.5" marker-end="url(#arrowhead)"/>
  <line x1="485" y1="540" x2="275" y2="550" stroke="#000" stroke-width="1.5" marker-end="url(#arrowhead)"/>
  <line x1="290" y1="565" x2="310" y2="565" stroke="#000" stroke-width="1.5" marker-end="url(#arrowhead)"/>
  <line x1="345" y1="565" x2="365" y2="565" stroke="#000" stroke-width="1.5" marker-end="url(#arrowhead)"/>
  
  <text x="390" y="600" font-size="8" text-anchor="middle" font-style="italic" font-family="Arial">Channel-refined features</text>
  
  <!-- Multiply 1 -->
  <circle cx="580" cy="520" r="15" fill="white" stroke="#000" stroke-width="2"/>
  <text x="580" y="526" font-size="14" text-anchor="middle" font-family="Arial">⊗</text>
  
  <!-- Skip to multiply -->
  <path d="M 200 495 Q 200 450 580 450 L 580 505" stroke="#000" stroke-width="1.5" fill="none" marker-end="url(#arrowhead)" stroke-dasharray="3,3"/>
  <line x1="415" y1="565" x2="565" y2="520" stroke="#000" stroke-width="1.5" marker-end="url(#arrowhead)"/>
  
  <!-- Spatial Attention Block -->
  <rect x="660" y="430" width="300" height="180" fill="#E6F9F0" stroke="#00AA00" stroke-width="2" rx="8" stroke-dasharray="5,5"/>
  <text x="810" y="450" font-size="11" font-weight="bold" text-anchor="middle" font-family="Arial">Spatial Attention Block</text>
  
  <!-- AvgPool spatial -->
  <rect x="680" y="475" width="90" height="28" fill="#A9DFBF" stroke="#000" stroke-width="1.5" rx="3"/>
  <text x="725" y="492" font-size="8" text-anchor="middle" font-family="Arial">Avg Pool (axis=3)</text>
  
  <!-- MaxPool spatial -->
  <rect x="680" y="513" width="90" height="28" fill="#A9DFBF" stroke="#000" stroke-width="1.5" rx="3"/>
  <text x="725" y="530" font-size="8" text-anchor="middle" font-family="Arial">Max Pool (axis=3)</text>
  
  <!-- Concat -->
  <rect x="795" y="488" width="50" height="30" fill="#A9DFBF" stroke="#000" stroke-width="1.5" rx="3"/>
  <text x="820" y="506" font-size="8" text-anchor="middle" font-family="Arial">Concat</text>
  
  <!-- Conv 7x7 -->
  <rect x="865" y="493" width="70" height="20" fill="#A9DFBF" stroke="#000" stroke-width="1.5" rx="3"/>
  <text x="900" y="506" font-size="8" text-anchor="middle" font-family="Arial">Conv 7×7</text>
  
  <!-- Sigmoid -->
  <rect x="865" y="523" width="70" height="20" fill="#A9DFBF" stroke="#000" stroke-width="1.5" rx="3"/>
  <text x="900" y="536" font-size="8" text-anchor="middle" font-family="Arial">Sigmoid</text>
  
  <!-- Arrows -->
  <line x1="770" y1="489" x2="795" y2="498" stroke="#000" stroke-width="1.5" marker-end="url(#arrowhead)"/>
  <line x1="770" y1="527" x2="795" y2="510" stroke="#000" stroke-width="1.5" marker-end="url(#arrowhead)"/>
  <line x1="845" y1="503" x2="865" y2="503" stroke="#000" stroke-width="1.5" marker-end="url(#arrowhead)"/>
  <line x1="900" y1="513" x2="900" y2="523" stroke="#000" stroke-width="1.5" marker-end="url(#arrowhead)"/>
  
  <text x="810" y="600" font-size="8" text-anchor="middle" font-style="italic" font-family="Arial">Spatial-refined features</text>
  
  <!-- Multiply 2 -->
  <circle cx="1000" cy="520" r="15" fill="white" stroke="#000" stroke-width="2"/>
  <text x="1000" y="526" font-size="14" text-anchor="middle" font-family="Arial">⊗</text>
  
  <!-- Skip to multiply 2 -->
  <path d="M 595 520 Q 650 450 1000 450 L 1000 505" stroke="#000" stroke-width="1.5" fill="none" marker-end="url(#arrowhead)" stroke-dasharray="3,3"/>
  <line x1="935" y1="533" x2="985" y2="520" stroke="#000" stroke-width="1.5" marker-end="url(#arrowhead)"/>
  
  <!-- Output Feature -->
  <g transform="translate(1080, 470)">
    <polygon points="0,50 20,0 80,0 60,50" fill="#F8B88B" stroke="#000" stroke-width="2"/>
    <text x="40" y="25" font-size="9" text-anchor="middle" font-family="Arial">Output</text>
    <text x="40" y="37" font-size="8" text-anchor="middle" font-family="Arial">7×7×1024</text>
    <text x="40" y="75" font-size="8" text-anchor="middle" font-family="Arial">Refined</text>
  </g>
  
  <line x1="1015" y1="520" x2="1080" y2="495" stroke="#000" stroke-width="2" marker-end="url(#arrowhead)"/>
  
  <!-- Legend -->
  <g transform="translate(100, 720)">
    <text x="0" y="0" font-size="12" font-weight="bold" font-family="Arial">Legend:</text>
    
    <rect x="0" y="10" width="40" height="20" fill="#E6F3FF" stroke="#0066CC" rx="3" stroke-dasharray="5,5"/>
    <text x="50" y="24" font-size="10" font-family="Arial">Dense Block</text>
    
    <rect x="180" y="10" width="40" height="20" fill="#FFE6CC" stroke="#FF9933" rx="3"/>
    <text x="230" y="24" font-size="10" font-family="Arial">Transition Layer</text>
    
    <rect x="380" y="10" width="40" height="20" fill="#E8E8E8" stroke="#000" rx="3" stroke-dasharray="5,5"/>
    <text x="430" y="24" font-size="10" font-family="Arial">CBAM Module</text>
    
    <rect x="580" y="10" width="40" height="20" fill="#F9E79F" stroke="#000" rx="3"/>
    <text x="630" y="24" font-size="10" font-family="Arial">Channel Attention</text>
    
    <rect x="800" y="10" width="40" height="20" fill="#A9DFBF" stroke="#000" rx="3"/>
    <text x="850" y="24" font-size="10" font-family="Arial">Spatial Attention</text>
    
    <circle cx="1020" cy="20" r="10" fill="white" stroke="#000" stroke-width="1"/>
    <text x="1035" y="24" font-size="14" font-family="Arial">⊗</text>
    <text x="1050" y="24" font-size="10" font-family="Arial">Element-wise Multiply</text>
  </g>
  
  <!-- Model Configuration -->
  <g transform="translate(100, 780)">
    <text x="0" y="0" font-size="12" font-weight="bold" font-family="Arial">Model Configuration:</text>
    <text x="0" y="20" font-size="10" font-family="Arial">• Total Parameters: 7,830,948 (~7.8M)</text>
    <text x="0" y="38" font-size="10" font-family="Arial">• Trainable Parameters: 7,745,252</text>
    <text x="0" y="56" font-size="10" font-family="Arial">• Input Size: 224 × 224 × 3</text>
    <text x="0" y="74" font-size="10" font-family="Arial">• Dense Blocks: [6, 12, 24, 16] layers</text>
    <text x="0" y="92" font-size="10" font-family="Arial">• CBAM Reduction Ratio: 8</text>
    
    <text x="500" y="0" font-size="12" font-weight="bold" font-family="Arial">Training Configuration:</text>
    <text x="500" y="20" font-size="10" font-family="Arial">• Pre-trained: ImageNet DenseNet121</text>
    <text x="500" y="38" font-size="10" font-family="Arial">• CBAM: Channel + Spatial Attention</text>
    <text x="500" y="56" font-size="10" font-family="Arial">• Dense Layer: 256 units (ReLU)</text>
    <text x="500" y="74" font-size="10" font-family="Arial">• Dropout Rate: 0.5</text>
    <text x="500" y="92" font-size="10" font-family="Arial">• Output: Binary Classification (Sigmoid)</text>
    
    <text x="1000" y="0" font-size="12" font-weight="bold" font-family="Arial">Key Features:</text>
    <text x="1000" y="20" font-size="10" font-family="Arial">• Dense Connectivity</text>
    <text x="1000" y="38" font-size="10" font-family="Arial">• Dual Attention Mechanism</text>
    <text x="1000" y="56" font-size="10" font-family="Arial">• Feature Reuse</text>
    <text x="1000" y="74" font-size="10" font-family="Arial">• Channel-wise Recalibration</text>
    <text x="1000" y="92" font-size="10" font-family="Arial">• Spatial Focus Enhancement</text>
  </g>
  
  <!-- Figure Caption -->
  <text x="700" y="1000" font-size="11" font-style="italic" text-anchor="middle" font-family="Arial">
    Fig. Architecture of DenseNet121 + CBAM model for automated glaucoma classification.
  </text>
  <text x="700" y="1020" font-size="10" text-anchor="middle" font-family="Arial">
    The model combines DenseNet's dense connectivity with CBAM's dual attention mechanism (channel + spatial)
  </text>
  <text x="700" y="1038" font-size="10" text-anchor="middle" font-family="Arial">
    for enhanced feature extraction and selective feature refinement in glaucoma detection.
  </text>
  
  <!-- Arrow marker definition -->
  <defs>
    <marker id="arrowhead" markerWidth="10" markerHeight="10" refX="9" refY="3" orient="auto">
      <polygon points="0 0, 10 3, 0 6" fill="#000"/>
    </marker>
  </defs>
</svg>